<?xml version="1.0" encoding="utf-8"?>
<!-- Generator: Adobe Illustrator 25.4.1, SVG Export Plug-In . SVG Version: 6.00 Build 0)  -->
<svg version="1.1" id="Layer_1" xmlns="http://www.w3.org/2000/svg" xmlns:xlink="http://www.w3.org/1999/xlink" x="0px" y="0px"
	 viewBox="0 0 120 34" width="120" height="34" style="enable-background:new 0 0 120 34;" xml:space="preserve">
<style type="text/css">
	.st0{fill-rule:evenodd;clip-rule:evenodd;fill:#00A651;}
	.st1{fill-rule:evenodd;clip-rule:evenodd;fill:#00AEEF;}
	.st2{clip-path:url(#SVGID_00000150066661627989582020000000750703502938897566_);}
	.st3{fill:#EDEDED;}
	.st4{fill:#1D439A;}
</style>
<desc>Created with Sketch.</desc>
<g id="Logos_x2F_Clalit-Hebrew_x2F_Desktop-for-develop_00000139984141007834433580000002992908783228701110_">
	<g id="Clalit_New_Logo-01_00000140726302067865223170000004140796041349353642_">
		<path id="Path_00000063592801245461879500000007996737858927464341_" class="st0" d="M28.1,5.5c0,0,0.3,1.7-0.6,5.9l-1.7,8.2h5.8
			l1.7-8.2c0.8-3.8,0.6-5.9,0.6-5.9H28.1z"/>
		<path id="Path_00000003797449581045458710000017515284489104929444_" class="st0" d="M69.4,5.5l-1.2,5.8h4.7c2,0,3.2,1,2.1,6.4
			c-1,4.8-2.6,6.4-4.7,6.4h-4.8l-1.2,5.8h7.4c4.1,0,7.5-3.8,9.3-12.2c1.9-9.2-0.8-12.2-4.2-12.2L69.4,5.5z"/>
		<path id="Path_00000084500891559160296640000017752591317499411378_" class="st0" d="M36.7,1c0,0.6,0,1.2-0.1,1.7l-0.5,2.8
			c-0.5,3.5,0.3,5.8,4,5.8h1.8c3.2-0.2,1.8,1.9,0.7,4.6l-5.3,14h6.1l5.9-15.8c2.2-5.9,0.1-8.6-2.2-8.6c-1.7,0-2.4,0-3.8,0
			c-1.5,0-1.3-1.4-1-2.6c0.1-0.7,0.1-1.5,0.1-1.9L36.7,1z"/>
		<path id="Path_00000181778655839313145250000004635636440189891481_" class="st0" d="M6.2,21.7c-1.1,4.9-3.2,3.7-4.7,3.4
			c-0.4,1.8-1,4.6-1,4.6c1.6,0.3,3.2,0.4,4.7,0.4c3.1-0.1,5.3-1.5,6.8-8.9l2.1-9.9h2.1c2.6,0,2.5,1.1,1.9,4.5l-2.9,14.1H21l3.2-15.4
			c1.8-8.3-0.8-9.1-4.8-9.1H9.6L6.2,21.7z"/>
		<path id="Path_00000020389208697639743170000011335441997152250041_" class="st0" d="M52.6,1c0,0.6,0,1.2-0.1,1.7
			C52.3,3.9,52,5.5,52,5.5c-0.5,3.5,0.3,5.8,4,5.8h1.8c3.2-0.2,1.8,1.9,0.7,4.6l-5.3,14h6.1l5.9-15.8c2.2-5.9,0.1-8.6-2.2-8.6
			c-1.7,0-2.4,0-3.8,0c-1.5,0-1.3-1.4-1-2.6c0.1-0.7,0.1-1.5,0.1-1.9L52.6,1z"/>
		<path id="Path_00000148642347738250748000000003599258800703388063_" class="st1" d="M102.4,1.6l-7.6,6.3
			c-0.3,0.3-0.7,0.4-1.2,0.4h-5c-0.4,0-0.7,0.3-0.8,0.7l-1,4.7c0,0.2,0,0.3,0.1,0.5c0.1,0.1,0.3,0.2,0.4,0.2h9
			c0.6,0,1.1-0.2,1.6-0.5l5.4-4.5c0.2-0.1,0.4-0.2,0.6-0.2c0.3,0,0.5,0.1,0.7,0.3l3.6,4.2c0.4,0.5,1.1,0.8,1.7,0.7h8.1
			c0.4,0,0.7-0.3,0.8-0.7l1-4.7c0-0.2,0-0.3-0.1-0.5c-0.1-0.1-0.3-0.2-0.4-0.2h-6.8c-0.3,0-0.5-0.1-0.7-0.3l-5.4-6.3
			c-0.5-0.6-1.2-0.9-1.9-0.9C103.7,0.7,102.9,1,102.4,1.6"/>
		<path id="Path_00000037654686488803324650000010633418600944438667_" class="st0" d="M86.1,19.8c-0.4,0-0.7,0.3-0.8,0.7l-1,4.7
			c0,0.2,0,0.3,0.1,0.5c0.1,0.1,0.3,0.2,0.4,0.2h6.8c0.3,0,0.5,0.1,0.7,0.3l5.4,6.3c0.5,0.6,1.2,0.9,1.9,0.9c0.8,0,1.6-0.3,2.1-0.9
			l7.5-6.3c0.3-0.3,0.7-0.4,1.2-0.4h5c0.4,0,0.7-0.3,0.8-0.7l1-4.6c0-0.2,0-0.3-0.1-0.5c-0.1-0.1-0.3-0.2-0.4-0.2h-9
			c-0.6,0-1.1,0.1-1.6,0.5l-5.4,4.5c-0.2,0.1-0.4,0.2-0.6,0.2c-0.2,0-0.5-0.1-0.7-0.3l-3.6-4.2c-0.4-0.5-1.1-0.8-1.7-0.7L86.1,19.8z
			"/>
	</g>
</g>
<g>
	<defs>
		<path id="SVGID_1_" d="M84.5,25.6c0,0-4.3-13.3,4.7-17.9c5.6-2.9,21.5-1.5,21.7-7.7c0.1,9.8-1.9,16.9-12.1,19.6S86,24.3,84.5,25.6
			z"/>
	</defs>
	<clipPath id="SVGID_00000003786951019959162050000016632710845760941212_">
		<use xlink:href="#SVGID_1_"  style="overflow:visible;"/>
	</clipPath>
	<g style="clip-path:url(#SVGID_00000003786951019959162050000016632710845760941212_);">
		<g>
			<g>
				<path class="st3" d="M84.4,25.8c-1.2-5-2-10.9,1.1-15.4c1.6-1.7,3.2-3,5.5-3.7c2.3-0.7,4.8-0.9,7.2-1.3
					c4.1-0.6,11.4-0.8,12.7-5.7c0.2,3.9-0.3,7.3-1.3,11c-1.9,4.4-5.2,7.1-9.8,8.5C94.4,21.1,88.8,22.1,84.4,25.8z"/>
				<path class="st4" d="M84.8,11.6c3.8-3.5,8.6-3.8,13.6-4.6c4.2-0.6,11.1-1,12.6-5.9c0,0.8,0,1.2,0,1.9c-1.1,4.7-8.4,5.6-12.3,6.3
					c-5.1,0.9-10.4,1.1-14.7,4.5C84.2,13,84.4,12.3,84.8,11.6z"/>
				<path class="st4" d="M83.6,21.8c4.5-3.7,10.2-4.6,15.6-6.1c4.1-1.2,9.2-3.2,11-7.5c-0.1,0.6-0.2,1-0.4,1.6
					c-4.6,10-18.2,8-25.8,14.5C83.9,23.5,83.7,22.7,83.6,21.8z"/>
				<g>
					<comment>value has to be sqrt(21)</comment>
					<g>
						<path class="st4" d="M96,14.6c1.9-0.5,3.8-0.9,5.7-1.5c-1.2-1-2.2-2.1-3.3-3.3C97.6,11.4,96.8,13,96,14.6z M98.6,10.7
							c0.7,0.8,1.5,1.5,2.2,2.3c-1.3,0.4-2.6,0.7-3.9,1C97.4,12.8,98,11.7,98.6,10.7z"/>
					</g>
					<g>
						<path class="st4" d="M95.7,11.7c1.1,1.2,2.2,2.4,3.3,3.6c0.8-1.6,1.6-3.2,2.4-4.8C99.6,11,97.7,11.3,95.7,11.7z M100.6,11.2
							c-0.6,1.1-1.1,2.1-1.7,3.2c-0.8-0.8-1.5-1.6-2.2-2.4C98,11.7,99.3,11.5,100.6,11.2z"/>
					</g>
				</g>
			</g>
		</g>
	</g>
</g>
</svg>
