<svg width="30" height="35" viewBox="0 0 30 35" xmlns="http://www.w3.org/2000/svg" xmlns:xlink="http://www.w3.org/1999/xlink" aria-labelledby="globe-medium-title">
	<title id="globe-medium-title">Visit The Boston Globe</title>
	<path d="M24.288 18.943l-.12 8.657c-.903.484-1.505.785-2.35 1.384-.662-.418-1.325-.84-2.11-1.322V16.477l4.58 2.466zm.665-7.517c0 1.32-1.205 1.984-5.244 4.51v-3.85c0-1.924.12-3.005.18-3.79h-.843c.12.843.18 1.866.18 3.79v15.338c-2.53-1.505-5.605-3.07-8.86-3.31 3.074-1.743 6.147-4.088 6.147-7.52V9.08c0-2.406.965-3.85 3.497-6.015C22 6.01 22.786 7.275 24.35 9.92c.362.603.603 1.205.603 1.506zm-7.895-9.382l-.12-.362c-2.533 0-3.92-.302-5.246-.54C10.427.962 9.342.72 7.836.72c-3.98 0-6.57 2.046-6.57 5.353 0 1.384.3 2.164 1.204 3.187l.362-.36c-.483-.603-.722-1.203-.722-1.866 0-1.442 1.205-2.705 3.856-2.705 1.99 0 3.798.36 5.365.72-3.374 2.465-5.425 4.27-5.425 9.502-.482-.18-1.145-.3-2.05-.3C1.326 14.253 0 15.936 0 17.56c0 .724.18 1.506.663 2.046l.422-.24c-.182-.362-.303-.722-.303-1.082 0-1.082.844-1.926 2.412-1.926 1.386 0 2.41.602 2.89 1.446 0 3.667-.72 5.532-2.65 5.532v.42c2.893 0 6.39-2.105 6.39-5.472v-6.736c0-5.534 3.255-8.118 7.234-9.502zm12.597 15.214L24.29 13.71c2.05-1.262 2.713-1.624 3.435-2.164 1.267-.903 1.63-1.444 1.63-1.985 0-.42-.183-1.202-1.147-2.645-1.205-1.805-2.35-3.55-4.76-6.915-3.377 2.285-5.244 3.665-8.8 6.434-1.447 1.14-2.533 2.946-2.533 5.23 0 .784.06 4.813.06 7.46 0 2.043-.36 3.128-2.53 4.93-5.243 0-8.378 3.37-8.378 6.736 0 1.444.483 2.948 1.567 4.148l.362-.36c-.663-.723-1.204-1.864-1.204-3.186 0-1.806 1.325-3.792 5.484-3.792 4.58 0 8.858 3.13 11.33 4.634 3.556-3.008 5.787-4.27 10.367-5.776V18.82c0-.538.18-1.08.482-1.562z" fill="#231F20" fill-rule="evenodd"/>

	<!-- fallback .png -->
	<image src="/bg-images/png/bg-logo--bug--medium.png?d=476" xlink:href=""/>
</svg>